<svg xmlns="http://www.w3.org/2000/svg" xmlns:xlink="http://www.w3.org/1999/xlink" viewBox="0 0 680.75 326.97"><defs><style>.cls-1,.cls-11,.cls-13,.cls-15,.cls-17,.cls-6{fill:none;}.cls-2{isolation:isolate;}.cls-3{clip-path:url(#clip-path);}.cls-16,.cls-4{fill:#b62025;}.cls-10,.cls-4,.cls-5{fill-rule:evenodd;}.cls-14,.cls-5{fill:#231f20;}.cls-11,.cls-15,.cls-17,.cls-6{stroke:#010101;}.cls-11,.cls-13,.cls-15,.cls-17,.cls-6{stroke-linecap:round;stroke-linejoin:round;}.cls-6{stroke-width:2.71px;}.cls-7{opacity:0.4;mix-blend-mode:multiply;}.cls-8{clip-path:url(#clip-path-4);}.cls-9{clip-path:url(#clip-path-5);}.cls-10{fill:#d1d3d4;}.cls-11{stroke-width:5.42px;}.cls-12{fill:#fff;}.cls-13{stroke:#fff;}.cls-13,.cls-15{stroke-width:6.78px;}.cls-17{stroke-width:1.25px;}</style><clipPath id="clip-path" transform="translate(-199.79 -330.34)"><rect class="cls-1" x="3.08" y="125.11" width="1073.83" height="829.78"/></clipPath><clipPath id="clip-path-4" transform="translate(-199.79 -330.34)"><rect class="cls-1" x="612.71" y="409.86" width="257.26" height="240.34"/></clipPath><clipPath id="clip-path-5" transform="translate(-199.79 -330.34)"><rect class="cls-1" x="612.71" y="409.86" width="257.26" height="240.34"/></clipPath></defs><g class="cls-2"><g id="Capa_1" data-name="Capa 1"><g id="Ilustración_20" data-name="Ilustración 20"><g class="cls-3"><g class="cls-3"><g class="cls-3"><path class="cls-4" d="M649.89,427.88c-48.28,5.05-61,39.09-53.2,67s90.36,126.22,125.95,132.26c32,5.44,53.61-11.38,67.91-30.88S863,501.09,820.78,487.44c-54.71-17.68-109.19,75.4-109.19,75.4s-3.24,16-19.5.65c-17.49-16.53-39.64-42.25-39.64-42.25s-20-23.43-.65-31.84c11.18-4.87,48.09,41.59,47.44,46.79,0,0,26-35.75,45.5-48.75,0,0-39-65.41-94.85-59.56" transform="translate(-199.79 -330.34)"/><path class="cls-5" d="M707.27,546.53c8.11-9,64.29-96.95,120.6-99.63S899.49,490,846.64,567.7C801,634.85,738,658.91,761.59,640s113.79-96.65,78-155.15S711.4,542,709.45,547.8Z" transform="translate(-199.79 -330.34)"/><path class="cls-6" d="M707.27,546.53c8.11-9,64.29-96.95,120.6-99.63S899.49,490,846.64,567.7C801,634.85,738,658.91,761.59,640s113.79-96.65,78-155.15S711.4,542,709.45,547.8Z" transform="translate(-199.79 -330.34)"/><g class="cls-7"><g class="cls-8"><g class="cls-9"><path class="cls-10" d="M747.85,409.86l0,3.19h-2.2v1.35h2.2l0,7.43h1.05l0-7.43h1.91v-1.35h-1.91v-3.18Zm-6.12,20.52,12.13.06s-.16-6.27-6.08-6.3c0,0-6,.07-6,6.24m-3,2.11,17.86.09v1.83l-17.86-.08Zm2.18,4.07h1.53l0,7s-3.16,1.34-4.12,3.17a31.7,31.7,0,0,0,2.62-10.21m14.34.06h-1.53l0,7s3.14,1.36,4.09,3.2a32,32,0,0,1-2.53-10.24M744,436.57h1.53l0,5.88h-1.62Zm6.12,0h1.52l0,5.88H750Zm-14.78,13.63-6.52,7.2,3.43,0Zm11-5.55s-9.17,1-11.72,14.41l11.75.06Zm-14.78,15.95-6.4,0,0,5.79,6.4,0Zm2.19.68,0,4.44,27.62.13,0-4.45Zm-2.4,6.94-3.7,0-.17,35.45,3.61,0Zm2.51,0,27.49.13-.17,35.81-3.82,0s-3.43-5.52-8.89-5.55c0,0-6.84-.75-10.13,5.46l-4.34,0Zm14,2.48a10.55,10.55,0,1,1-10.5,10.5,10.49,10.49,0,0,1,10.5-10.5m-.14,2.85a7.38,7.38,0,1,1-7.33,7.34,7.34,7.34,0,0,1,7.33-7.34m-66.5,32.64,121.22.58,0,4.52-121.23-.58Zm-25,5.15,20,.09L676.22,531l-20.06-.1Zm23.14,2.84,54,.26-.08,18.24-54-.25Zm57.86,0h1.43l-.07,15.27h-1.44Zm-3.9,15.41,27.38.13v1.13l-27.37-.13Zm27.37-14.9,44.17.21L804.81,533l-44.16-.21Zm-79.52,20.93,120.64.57,0,7.72-120.64-.57ZM656,543.94l20.22.09-.15,31.35-20.16-11.67Zm-20,8.34,16.79.08,0,10.13Zm-4.15,1.11,45.88,26.66L670,587.41l-44.87-21Zm-2.86-.9-7.06,12.59L613.1,565l.06-12.38ZM613.17,550l15.29.07-15.25-8.19ZM624,568.91l44.67,21.31v51.37l-45.4,6.89Zm-10.9-.3,7.92,0-.38,79.82-7.92,0Zm58.68,43.21,4.18,0-.13,28.94-4.18,0Zm6.57.15,9.07,0-.13,29.06-9.08,0Zm11.22,0h1.79l-.14,29.66h-1.79Zm-17.72-13.95,4.06,0-.18-12.3-4,3.84Zm-.85,2.29,22.45.1-6.25,8.66L671,609Zm84.89-86.09h1.43l-.07,15.27h-1.43Zm-20.58-6.58,24.83.12a1,1,0,0,1,1,1,1,1,0,0,1-1,1l-24.83-.11a1,1,0,0,1,0-1.94m10.06,18.74,4.53,0a1.57,1.57,0,0,1,0,3.14l-4.54,0a1.57,1.57,0,0,1,0-3.14m61.78-14.34,20.05.1-.09,19.53-20.05-.09ZM653.81,502l2.53,5.65,19.66.1,2.28-5.57Zm-.15,32.8,2.52,5.65,19.67.09,2.28-5.57Zm152-32.08,2.53,5.65,19.66.09,2.29-5.57Zm-.15,32.8,2.52,5.65,19.66.09,2.29-5.57Zm1.57,9.23L807,569.41l23.15-24.78Zm21.09,6.65,5.17,15.75-26.46,19-5.11-7.36Zm5.65-4.5L870,535.46l-.05,11.87Zm-3.16,2.78,39.25.18-.08,16.6-33.52-.35Zm5.9,20,33.23.16-.38,79.82-33.22-.16Zm-2.94-.13-26.75,19.77-.26,53.41,26.74,7.48Zm-31.84,43h1.79l-.14,29.66h-1.79ZM696.9,600.48h1.31l-6.49,8.66h-1.31Zm98.24.46h-1.31l6.41,8.71h1.31Zm9.31,0-6.68,0,6.17,8.71h.47Zm-.1-54.14-.12,25.68-5.4,6.37,5.57,8.22-.06,11.58-3.46,0s-9.55-50.69-52.64-49.81c0,0-46.92-1.06-55.63,49.3l-13.73-.06.08-15,2.64-3.72L679,577l.15-30.75ZM695.12,598.18h1.67s3-42.43,51.41-42.2c0,0,36.06-.91,47.19,42.67H798s-8-46.46-49.79-46.66c0,0-42.84-3.22-53.1,46.17m47.29-68.53.05-11.86s.49-3.67,4.89-3.65c0,0,4.78,0,4.76,3.6l.23,12ZM746.48,475h2.1l0,6.18,4.2,0v2.31l-6.4,0Zm13.61-24.63,6.45,7.26-3.44,0Zm-11-5.66s9.16,1.11,11.58,14.53L749,459.16Zm14.43,16.09,6.4,0,0,5.79-6.4,0Zm.13,7.62,3.7,0-.16,35.45-3.62,0Z" transform="translate(-199.79 -330.34)"/></g></g></g><path class="cls-11" d="M708,547.42A12.23,12.23,0,0,1,693.8,550s-21.46-27.7-32.25-41.19-17.88,0-17.88,0-42,86.84-49.16,102-19.73.89-19.73.89S537.46,511.25,532.09,489.8c-3.61-14.46-6.45-16.48-10.76-16.27l-17.69.18s-5.8-11.87-13-13.41c-8.27-1.77-15.9,12.7-15.9,12.7H448.51l-3.58,49.2c-5.53,47.18-14.3,7.15-14.3,7.15s-1.87-159.74-9.83-194.17c-4.38-18.94-14.21,93.73-16,120.54s-19.16,17.48-20.56,7.15c-1.11-8.18-14.87-7.94-17.14-1.12C363.5,472.59,349,473.33,349,473.33H202.59" transform="translate(-199.79 -330.34)"/><path class="cls-12" d="M291.45,501.76H277.69v-9.19a16.28,16.28,0,0,0-.44-5,1.89,1.89,0,0,0-1.94-1,2,2,0,0,0-2.16,1.21,18.07,18.07,0,0,0-.46,5.22v24.58a16.91,16.91,0,0,0,.46,5,2.34,2.34,0,0,0,4.07,0,19.5,19.5,0,0,0,.47-5.54v-6.65h13.76v2.07q0,8.21-1.16,11.65a11.86,11.86,0,0,1-5.13,6,17.61,17.61,0,0,1-9.79,2.59,20.3,20.3,0,0,1-10-2.19,10.64,10.64,0,0,1-5.19-6.07q-1.27-3.87-1.28-11.65V497.38a66.87,66.87,0,0,1,.4-8.58,12,12,0,0,1,2.33-5.5,13,13,0,0,1,5.39-4.17,19.54,19.54,0,0,1,7.93-1.52A19.34,19.34,0,0,1,285,480a11.28,11.28,0,0,1,5.2,5.86q1.25,3.51,1.24,10.92Z" transform="translate(-199.79 -330.34)"/><path class="cls-13" d="M291.45,501.76H277.69v-9.19a16.28,16.28,0,0,0-.44-5,1.89,1.89,0,0,0-1.94-1,2,2,0,0,0-2.16,1.21,18.07,18.07,0,0,0-.46,5.22v24.58a16.91,16.91,0,0,0,.46,5,2.34,2.34,0,0,0,4.07,0,19.5,19.5,0,0,0,.47-5.54v-6.65h13.76v2.07q0,8.21-1.16,11.65a11.86,11.86,0,0,1-5.13,6,17.61,17.61,0,0,1-9.79,2.59,20.3,20.3,0,0,1-10-2.19,10.64,10.64,0,0,1-5.19-6.07q-1.27-3.87-1.28-11.65V497.38a66.87,66.87,0,0,1,.4-8.58,12,12,0,0,1,2.33-5.5,13,13,0,0,1,5.39-4.17,19.54,19.54,0,0,1,7.93-1.52A19.34,19.34,0,0,1,285,480a11.28,11.28,0,0,1,5.2,5.86q1.25,3.51,1.24,10.92Z" transform="translate(-199.79 -330.34)"/><path class="cls-12" d="M325.9,510.72H308.81v9.38a10.54,10.54,0,0,0,.42,3.79,1.66,1.66,0,0,0,1.64.85,2,2,0,0,0,2-1.13,12.53,12.53,0,0,0,.5-4.36v-5.72H325.9v3.2a28.54,28.54,0,0,1-.51,6.18,12.37,12.37,0,0,1-2.37,4.61,11.56,11.56,0,0,1-4.72,3.68,18.43,18.43,0,0,1-7.17,1.22,20.78,20.78,0,0,1-7.39-1.21,11.79,11.79,0,0,1-5-3.32,11.94,11.94,0,0,1-2.47-4.64,29.79,29.79,0,0,1-.69-7.37V503.24a21.45,21.45,0,0,1,1.54-9,10.54,10.54,0,0,1,5-5,17.68,17.68,0,0,1,8-1.75,17.93,17.93,0,0,1,9.17,2.11,11.51,11.51,0,0,1,5.06,5.59A26.17,26.17,0,0,1,325.9,505Zm-13.24-7.06v-3.17a16,16,0,0,0-.36-4.35,1.42,1.42,0,0,0-1.47-1c-.91,0-1.48.28-1.7.83a17.47,17.47,0,0,0-.32,4.5v3.17Z" transform="translate(-199.79 -330.34)"/><path class="cls-13" d="M325.9,510.72H308.81v9.38a10.54,10.54,0,0,0,.42,3.79,1.66,1.66,0,0,0,1.64.85,2,2,0,0,0,2-1.13,12.53,12.53,0,0,0,.5-4.36v-5.72H325.9v3.2a28.54,28.54,0,0,1-.51,6.18,12.37,12.37,0,0,1-2.37,4.61,11.56,11.56,0,0,1-4.72,3.68,18.43,18.43,0,0,1-7.17,1.22,20.78,20.78,0,0,1-7.39-1.21,11.79,11.79,0,0,1-5-3.32,11.94,11.94,0,0,1-2.47-4.64,29.79,29.79,0,0,1-.69-7.37V503.24a21.45,21.45,0,0,1,1.54-9,10.54,10.54,0,0,1,5-5,17.68,17.68,0,0,1,8-1.75,17.93,17.93,0,0,1,9.17,2.11,11.51,11.51,0,0,1,5.06,5.59A26.17,26.17,0,0,1,325.9,505Zm-13.24-7.06v-3.17a16,16,0,0,0-.36-4.35,1.42,1.42,0,0,0-1.47-1c-.91,0-1.48.28-1.7.83a17.47,17.47,0,0,0-.32,4.5v3.17Z" transform="translate(-199.79 -330.34)"/><path class="cls-12" d="M343.65,488.27l-.23,4a9.89,9.89,0,0,1,3.51-3.58,9.39,9.39,0,0,1,4.79-1.2,9.07,9.07,0,0,1,5.56,1.6,7.15,7.15,0,0,1,2.77,4,36.36,36.36,0,0,1,.63,8.12v30.4H347.47v-30a28.74,28.74,0,0,0-.29-5.46c-.2-.65-.74-1-1.64-1a1.64,1.64,0,0,0-1.76,1.13,28.29,28.29,0,0,0-.36,6v29.32H330.21V488.27Z" transform="translate(-199.79 -330.34)"/><path class="cls-13" d="M343.65,488.27l-.23,4a9.89,9.89,0,0,1,3.51-3.58,9.39,9.39,0,0,1,4.79-1.2,9.07,9.07,0,0,1,5.56,1.6,7.15,7.15,0,0,1,2.77,4,36.36,36.36,0,0,1,.63,8.12v30.4H347.47v-30a28.74,28.74,0,0,0-.29-5.46c-.2-.65-.74-1-1.64-1a1.64,1.64,0,0,0-1.76,1.13,28.29,28.29,0,0,0-.36,6v29.32H330.21V488.27Z" transform="translate(-199.79 -330.34)"/><path class="cls-12" d="M379.14,482.48v6.83h3.56v6.86h-3.56v23.21c0,2.85.15,4.44.44,4.77s1.52.49,3.68.49v7h-5.33a38.06,38.06,0,0,1-6.44-.38,6.84,6.84,0,0,1-3.39-1.73,5.74,5.74,0,0,1-1.84-3.11,54.87,54.87,0,0,1-.36-8.22v-22h-2.84v-6.86h2.84v-6.83Z" transform="translate(-199.79 -330.34)"/><path class="cls-13" d="M379.14,482.48v6.83h3.56v6.86h-3.56v23.21c0,2.85.15,4.44.44,4.77s1.52.49,3.68.49v7h-5.33a38.06,38.06,0,0,1-6.44-.38,6.84,6.84,0,0,1-3.39-1.73,5.74,5.74,0,0,1-1.84-3.11,54.87,54.87,0,0,1-.36-8.22v-22h-2.84v-6.86h2.84v-6.83Z" transform="translate(-199.79 -330.34)"/><path class="cls-12" d="M398.82,488.27l-.53,5.7q2.88-6.14,8.34-6.49v15.26a11.11,11.11,0,0,0-5.33,1,4.11,4.11,0,0,0-2.09,2.73,49.34,49.34,0,0,0-.39,8.06v17.13H385.61V488.27Z" transform="translate(-199.79 -330.34)"/><path class="cls-13" d="M398.82,488.27l-.53,5.7q2.88-6.14,8.34-6.49v15.26a11.11,11.11,0,0,0-5.33,1,4.11,4.11,0,0,0-2.09,2.73,49.34,49.34,0,0,0-.39,8.06v17.13H385.61V488.27Z" transform="translate(-199.79 -330.34)"/><path class="cls-12" d="M439.44,503.5v10.62a45,45,0,0,1-.59,8.58,12,12,0,0,1-2.52,5.1,11.27,11.27,0,0,1-4.95,3.49,19.8,19.8,0,0,1-6.94,1.13,24.9,24.9,0,0,1-7.42-1,10.18,10.18,0,0,1-4.72-2.91,11.46,11.46,0,0,1-2.41-4.71,36,36,0,0,1-.71-8.28V504.44a27.19,27.19,0,0,1,1.3-9.44,10.82,10.82,0,0,1,4.71-5.46,16.56,16.56,0,0,1,8.69-2.06,19.85,19.85,0,0,1,7.63,1.32,12.32,12.32,0,0,1,4.92,3.45,12.11,12.11,0,0,1,2.37,4.38,27,27,0,0,1,.64,6.87m-13.2-3.27a14.42,14.42,0,0,0-.36-4.2,1.49,1.49,0,0,0-1.54-.87,1.55,1.55,0,0,0-1.57.87,13.36,13.36,0,0,0-.39,4.2V519.8a12.78,12.78,0,0,0,.39,4,1.79,1.79,0,0,0,3.09.08,11.08,11.08,0,0,0,.38-3.66Z" transform="translate(-199.79 -330.34)"/><path class="cls-13" d="M439.44,503.5v10.62a45,45,0,0,1-.59,8.58,12,12,0,0,1-2.52,5.1,11.27,11.27,0,0,1-4.95,3.49,19.8,19.8,0,0,1-6.94,1.13,24.9,24.9,0,0,1-7.42-1,10.18,10.18,0,0,1-4.72-2.91,11.46,11.46,0,0,1-2.41-4.71,36,36,0,0,1-.71-8.28V504.44a27.19,27.19,0,0,1,1.3-9.44,10.82,10.82,0,0,1,4.71-5.46,16.56,16.56,0,0,1,8.69-2.06,19.85,19.85,0,0,1,7.63,1.32,12.32,12.32,0,0,1,4.92,3.45,12.11,12.11,0,0,1,2.37,4.38A27,27,0,0,1,439.44,503.5Zm-13.2-3.27a14.42,14.42,0,0,0-.36-4.2,1.49,1.49,0,0,0-1.54-.87,1.55,1.55,0,0,0-1.57.87,13.36,13.36,0,0,0-.39,4.2V519.8a12.78,12.78,0,0,0,.39,4,1.79,1.79,0,0,0,3.09.08,11.08,11.08,0,0,0,.38-3.66Z" transform="translate(-199.79 -330.34)"/><path class="cls-12" d="M485.62,478.72v52.92h-13.2v-3.15a13.9,13.9,0,0,1-4,3,10.22,10.22,0,0,1-4.38,1,8.91,8.91,0,0,1-5.33-1.62,7.23,7.23,0,0,1-2.89-3.74,26.89,26.89,0,0,1-.64-6.93V499.84a27.58,27.58,0,0,1,.64-7.1,7,7,0,0,1,2.93-3.67,9.29,9.29,0,0,1,5.45-1.59,10.84,10.84,0,0,1,8.21,3.54v-12.3Zm-13.2,20.46A8.26,8.26,0,0,0,472,496a1.62,1.62,0,0,0-1.62-.82,1.65,1.65,0,0,0-1.58.74,8,8,0,0,0-.41,3.28v21.24a9.89,9.89,0,0,0,.39,3.49,1.5,1.5,0,0,0,1.5.83,1.68,1.68,0,0,0,1.7-.93,14.1,14.1,0,0,0,.43-4.56Z" transform="translate(-199.79 -330.34)"/><path class="cls-13" d="M485.62,478.72v52.92h-13.2v-3.15a13.9,13.9,0,0,1-4,3,10.22,10.22,0,0,1-4.38,1,8.91,8.91,0,0,1-5.33-1.62,7.23,7.23,0,0,1-2.89-3.74,26.89,26.89,0,0,1-.64-6.93V499.84a27.58,27.58,0,0,1,.64-7.1,7,7,0,0,1,2.93-3.67,9.29,9.29,0,0,1,5.45-1.59,10.84,10.84,0,0,1,8.21,3.54v-12.3Zm-13.2,20.46A8.26,8.26,0,0,0,472,496a1.62,1.62,0,0,0-1.62-.82,1.65,1.65,0,0,0-1.58.74,8,8,0,0,0-.41,3.28v21.24a9.89,9.89,0,0,0,.39,3.49,1.5,1.5,0,0,0,1.5.83,1.68,1.68,0,0,0,1.7-.93,14.1,14.1,0,0,0,.43-4.56Z" transform="translate(-199.79 -330.34)"/><path class="cls-12" d="M520.26,510.72H503.17v9.38a10.23,10.23,0,0,0,.43,3.79,1.63,1.63,0,0,0,1.63.85,2,2,0,0,0,2-1.13,12.22,12.22,0,0,0,.51-4.36v-5.72h12.51v3.2a28.66,28.66,0,0,1-.5,6.18,12.68,12.68,0,0,1-2.37,4.61,11.63,11.63,0,0,1-4.72,3.68,18.45,18.45,0,0,1-7.18,1.22,20.78,20.78,0,0,1-7.39-1.21,11.5,11.5,0,0,1-7.45-8,30.38,30.38,0,0,1-.68-7.37V503.24a21.63,21.63,0,0,1,1.53-9,10.56,10.56,0,0,1,5-5,17.68,17.68,0,0,1,8-1.75,17.89,17.89,0,0,1,9.16,2.11,11.58,11.58,0,0,1,5.07,5.59q1.46,3.48,1.45,9.79ZM507,503.66v-3.17a16,16,0,0,0-.36-4.35,1.42,1.42,0,0,0-1.47-1c-.92,0-1.48.28-1.7.83a17.28,17.28,0,0,0-.33,4.5v3.17Z" transform="translate(-199.79 -330.34)"/><path class="cls-13" d="M520.26,510.72H503.17v9.38a10.23,10.23,0,0,0,.43,3.79,1.63,1.63,0,0,0,1.63.85,2,2,0,0,0,2-1.13,12.22,12.22,0,0,0,.51-4.36v-5.72h12.51v3.2a28.66,28.66,0,0,1-.5,6.18,12.68,12.68,0,0,1-2.37,4.61,11.63,11.63,0,0,1-4.72,3.68,18.45,18.45,0,0,1-7.18,1.22,20.78,20.78,0,0,1-7.39-1.21,11.5,11.5,0,0,1-7.45-8,30.38,30.38,0,0,1-.68-7.37V503.24a21.63,21.63,0,0,1,1.53-9,10.56,10.56,0,0,1,5-5,17.68,17.68,0,0,1,8-1.75,17.89,17.89,0,0,1,9.16,2.11,11.58,11.58,0,0,1,5.07,5.59q1.46,3.48,1.45,9.79ZM507,503.66v-3.17a16,16,0,0,0-.36-4.35,1.42,1.42,0,0,0-1.47-1c-.92,0-1.48.28-1.7.83a17.28,17.28,0,0,0-.33,4.5v3.17Z" transform="translate(-199.79 -330.34)"/><path class="cls-12" d="M235.7,566.69H221.94V557.5a16.16,16.16,0,0,0-.45-5,1.89,1.89,0,0,0-1.94-1,2,2,0,0,0-2.16,1.21,18.67,18.67,0,0,0-.45,5.23v24.57a17.52,17.52,0,0,0,.45,5,2,2,0,0,0,2.06,1.17,1.92,1.92,0,0,0,2-1.18,18.94,18.94,0,0,0,.48-5.53v-6.65H235.7v2.06q0,8.21-1.17,11.65a11.86,11.86,0,0,1-5.13,6,17.5,17.5,0,0,1-9.79,2.59,20.23,20.23,0,0,1-10-2.19,10.64,10.64,0,0,1-5.2-6.06q-1.27-3.88-1.27-11.66V562.32a69,69,0,0,1,.39-8.58,12,12,0,0,1,2.33-5.51,13.09,13.09,0,0,1,5.4-4.17,22.07,22.07,0,0,1,18,.83,11.31,11.31,0,0,1,5.19,5.86q1.25,3.51,1.25,10.92Z" transform="translate(-199.79 -330.34)"/><path class="cls-13" d="M235.7,566.69H221.94V557.5a16.16,16.16,0,0,0-.45-5,1.89,1.89,0,0,0-1.94-1,2,2,0,0,0-2.16,1.21,18.67,18.67,0,0,0-.45,5.23v24.57a17.52,17.52,0,0,0,.45,5,2,2,0,0,0,2.06,1.17,1.92,1.92,0,0,0,2-1.18,18.94,18.94,0,0,0,.48-5.53v-6.65H235.7v2.06q0,8.21-1.17,11.65a11.86,11.86,0,0,1-5.13,6,17.5,17.5,0,0,1-9.79,2.59,20.23,20.23,0,0,1-10-2.19,10.64,10.64,0,0,1-5.2-6.06q-1.27-3.88-1.27-11.66V562.32a69,69,0,0,1,.39-8.58,12,12,0,0,1,2.33-5.51,13.09,13.09,0,0,1,5.4-4.17,22.07,22.07,0,0,1,18,.83,11.31,11.31,0,0,1,5.19,5.86q1.25,3.51,1.25,10.92Z" transform="translate(-199.79 -330.34)"/><path class="cls-12" d="M252,570H239.65v-2.9a20.62,20.62,0,0,1,1.16-7.77,10.79,10.79,0,0,1,4.66-4.82,17.56,17.56,0,0,1,9.08-2.09q6.7,0,10.1,2.37a9.24,9.24,0,0,1,4.09,5.82q.69,3.45.68,14.2v21.77H256.58V592.7a8,8,0,0,1-7.68,4.65,11.15,11.15,0,0,1-6.36-2q-2.89-1.93-2.89-8.51v-3.56q0-4.87,1.54-6.63t7.61-4.12q6.51-2.55,7-3.44a9,9,0,0,0,.46-3.59,12,12,0,0,0-.51-4.43,1.73,1.73,0,0,0-1.68-1c-.89,0-1.45.29-1.67.87a18.1,18.1,0,0,0-.32,4.49Zm4.18,6q-3.17,2.32-3.68,3.89a15.78,15.78,0,0,0-.5,4.51,13,13,0,0,0,.44,4.35,1.73,1.73,0,0,0,1.75,1,1.62,1.62,0,0,0,1.61-.77,12.36,12.36,0,0,0,.38-4Z" transform="translate(-199.79 -330.34)"/><path class="cls-13" d="M252,570H239.65v-2.9a20.62,20.62,0,0,1,1.16-7.77,10.79,10.79,0,0,1,4.66-4.82,17.56,17.56,0,0,1,9.08-2.09q6.7,0,10.1,2.37a9.24,9.24,0,0,1,4.09,5.82q.69,3.45.68,14.2v21.77H256.58V592.7a8,8,0,0,1-7.68,4.65,11.15,11.15,0,0,1-6.36-2q-2.89-1.93-2.89-8.51v-3.56q0-4.87,1.54-6.63t7.61-4.12q6.51-2.55,7-3.44a9,9,0,0,0,.46-3.59,12,12,0,0,0-.51-4.43,1.73,1.73,0,0,0-1.68-1c-.89,0-1.45.29-1.67.87a18.1,18.1,0,0,0-.32,4.49Zm4.18,6q-3.17,2.32-3.68,3.89a15.78,15.78,0,0,0-.5,4.51,13,13,0,0,0,.44,4.35,1.73,1.73,0,0,0,1.75,1,1.62,1.62,0,0,0,1.61-.77,12.36,12.36,0,0,0,.38-4Z" transform="translate(-199.79 -330.34)"/><path class="cls-12" d="M287.17,553.2l-.52,5.7q2.87-6.14,8.33-6.49v15.26a11.06,11.06,0,0,0-5.32,1,4.13,4.13,0,0,0-2.1,2.73,49.34,49.34,0,0,0-.39,8.06v17.13H274V553.2Z" transform="translate(-199.79 -330.34)"/><path class="cls-13" d="M287.17,553.2l-.52,5.7q2.87-6.14,8.33-6.49v15.26a11.06,11.06,0,0,0-5.32,1,4.13,4.13,0,0,0-2.1,2.73,49.34,49.34,0,0,0-.39,8.06v17.13H274V553.2Z" transform="translate(-199.79 -330.34)"/><path class="cls-12" d="M328,543.65v52.92h-13.2v-3.15a13.9,13.9,0,0,1-4,3,10.29,10.29,0,0,1-4.38,1,8.91,8.91,0,0,1-5.33-1.62,7.18,7.18,0,0,1-2.89-3.74,26.39,26.39,0,0,1-.64-6.93V564.77a27.13,27.13,0,0,1,.64-7.1,7,7,0,0,1,2.92-3.67,9.35,9.35,0,0,1,5.46-1.59,10.84,10.84,0,0,1,8.21,3.54v-12.3Zm-13.2,20.46a8.26,8.26,0,0,0-.41-3.2,1.62,1.62,0,0,0-1.62-.82,1.67,1.67,0,0,0-1.59.74,8.19,8.19,0,0,0-.41,3.28v21.25a9.79,9.79,0,0,0,.4,3.48,1.5,1.5,0,0,0,1.5.83,1.68,1.68,0,0,0,1.7-.93,14.41,14.41,0,0,0,.43-4.56Z" transform="translate(-199.79 -330.34)"/><path class="cls-13" d="M328,543.65v52.92h-13.2v-3.15a13.9,13.9,0,0,1-4,3,10.29,10.29,0,0,1-4.38,1,8.91,8.91,0,0,1-5.33-1.62,7.18,7.18,0,0,1-2.89-3.74,26.39,26.39,0,0,1-.64-6.93V564.77a27.13,27.13,0,0,1,.64-7.1,7,7,0,0,1,2.92-3.67,9.35,9.35,0,0,1,5.46-1.59,10.84,10.84,0,0,1,8.21,3.54v-12.3Zm-13.2,20.46a8.26,8.26,0,0,0-.41-3.2,1.62,1.62,0,0,0-1.62-.82,1.67,1.67,0,0,0-1.59.74,8.19,8.19,0,0,0-.41,3.28v21.25a9.79,9.79,0,0,0,.4,3.48,1.5,1.5,0,0,0,1.5.83,1.68,1.68,0,0,0,1.7-.93,14.41,14.41,0,0,0,.43-4.56Z" transform="translate(-199.79 -330.34)"/><path class="cls-12" d="M346.29,550.55H332.7v-6.9h13.59Zm0,46H332.7V553.2h13.59Z" transform="translate(-199.79 -330.34)"/><path class="cls-13" d="M346.29,550.55H332.7v-6.9h13.59Zm0,46H332.7V553.2h13.59Z" transform="translate(-199.79 -330.34)"/><path class="cls-12" d="M380.9,568.43v10.62a45.18,45.18,0,0,1-.58,8.58,12.09,12.09,0,0,1-2.52,5.1,11.39,11.39,0,0,1-4.95,3.49,19.86,19.86,0,0,1-7,1.13,24.9,24.9,0,0,1-7.42-1,10.23,10.23,0,0,1-4.72-2.91,11.57,11.57,0,0,1-2.4-4.71,35.3,35.3,0,0,1-.72-8.28V569.37a27.16,27.16,0,0,1,1.31-9.44,10.82,10.82,0,0,1,4.71-5.46,16.56,16.56,0,0,1,8.69-2.06,19.69,19.69,0,0,1,7.63,1.33,11.93,11.93,0,0,1,7.29,7.82,27.64,27.64,0,0,1,.63,6.87m-13.2-3.27a14.37,14.37,0,0,0-.36-4.2,1.48,1.48,0,0,0-1.53-.87,1.54,1.54,0,0,0-1.57.87,13.2,13.2,0,0,0-.4,4.2v19.57a12.68,12.68,0,0,0,.4,4,1.5,1.5,0,0,0,1.53.93,1.52,1.52,0,0,0,1.56-.85,11.13,11.13,0,0,0,.37-3.66Z" transform="translate(-199.79 -330.34)"/><path class="cls-13" d="M380.9,568.43v10.62a45.18,45.18,0,0,1-.58,8.58,12.09,12.09,0,0,1-2.52,5.1,11.39,11.39,0,0,1-4.95,3.49,19.86,19.86,0,0,1-7,1.13,24.9,24.9,0,0,1-7.42-1,10.23,10.23,0,0,1-4.72-2.91,11.57,11.57,0,0,1-2.4-4.71,35.3,35.3,0,0,1-.72-8.28V569.37a27.16,27.16,0,0,1,1.31-9.44,10.82,10.82,0,0,1,4.71-5.46,16.56,16.56,0,0,1,8.69-2.06,19.69,19.69,0,0,1,7.63,1.33,11.93,11.93,0,0,1,7.29,7.82A27.64,27.64,0,0,1,380.9,568.43Zm-13.2-3.27a14.37,14.37,0,0,0-.36-4.2,1.48,1.48,0,0,0-1.53-.87,1.54,1.54,0,0,0-1.57.87,13.2,13.2,0,0,0-.4,4.2v19.57a12.68,12.68,0,0,0,.4,4,1.5,1.5,0,0,0,1.53.93,1.52,1.52,0,0,0,1.56-.85,11.13,11.13,0,0,0,.37-3.66Z" transform="translate(-199.79 -330.34)"/><rect class="cls-12" x="185.47" y="213.31" width="13.6" height="52.91"/><rect class="cls-13" x="185.47" y="213.31" width="13.6" height="52.91"/><path class="cls-12" d="M433.46,568.43v10.62a45,45,0,0,1-.59,8.58,12,12,0,0,1-2.52,5.1,11.27,11.27,0,0,1-5,3.49,19.8,19.8,0,0,1-6.94,1.13,24.85,24.85,0,0,1-7.42-1,10.18,10.18,0,0,1-4.72-2.91,11.46,11.46,0,0,1-2.41-4.71,36,36,0,0,1-.71-8.28V569.37a27.19,27.19,0,0,1,1.3-9.44,10.82,10.82,0,0,1,4.71-5.46,16.56,16.56,0,0,1,8.69-2.06,19.66,19.66,0,0,1,7.63,1.33,11.93,11.93,0,0,1,7.29,7.82,27.07,27.07,0,0,1,.64,6.87m-13.2-3.27a14.37,14.37,0,0,0-.36-4.2,1.49,1.49,0,0,0-1.54-.87,1.54,1.54,0,0,0-1.57.87,13.31,13.31,0,0,0-.39,4.2v19.57a12.78,12.78,0,0,0,.39,4,1.79,1.79,0,0,0,3.09.08,11,11,0,0,0,.38-3.66Z" transform="translate(-199.79 -330.34)"/><path class="cls-13" d="M433.46,568.43v10.62a45,45,0,0,1-.59,8.58,12,12,0,0,1-2.52,5.1,11.27,11.27,0,0,1-5,3.49,19.8,19.8,0,0,1-6.94,1.13,24.85,24.85,0,0,1-7.42-1,10.18,10.18,0,0,1-4.72-2.91,11.46,11.46,0,0,1-2.41-4.71,36,36,0,0,1-.71-8.28V569.37a27.19,27.19,0,0,1,1.3-9.44,10.82,10.82,0,0,1,4.71-5.46,16.56,16.56,0,0,1,8.69-2.06,19.66,19.66,0,0,1,7.63,1.33,11.93,11.93,0,0,1,7.29,7.82A27.07,27.07,0,0,1,433.46,568.43Zm-13.2-3.27a14.37,14.37,0,0,0-.36-4.2,1.49,1.49,0,0,0-1.54-.87,1.54,1.54,0,0,0-1.57.87,13.31,13.31,0,0,0-.39,4.2v19.57a12.78,12.78,0,0,0,.39,4,1.79,1.79,0,0,0,3.09.08,11,11,0,0,0,.38-3.66Z" transform="translate(-199.79 -330.34)"/><path class="cls-12" d="M467.81,553.2v33.4a73.14,73.14,0,0,1-.31,8.74,8.75,8.75,0,0,1-2.21,4.19,11.78,11.78,0,0,1-5.27,3.36,26.76,26.76,0,0,1-8.52,1.16q-6.3,0-10.13-2.14t-3.95-8.42h12.81c0,1.92.69,2.88,2.09,2.88a2.07,2.07,0,0,0,2-.88,8.88,8.88,0,0,0,.49-3.7v-3.27a12.71,12.71,0,0,1-3.58,2.33,10.13,10.13,0,0,1-3.93.78,10.91,10.91,0,0,1-5.87-1.44,7.25,7.25,0,0,1-3.15-3.77,20.24,20.24,0,0,1-.85-6.65V564c0-4.11.74-7.08,2.22-8.88s3.73-2.72,6.76-2.72a10,10,0,0,1,4.53,1,10.62,10.62,0,0,1,3.64,3l.95-3.27Zm-13.24,11.5a12.52,12.52,0,0,0-.34-3.79,1.47,1.47,0,0,0-1.52-.82,1.68,1.68,0,0,0-1.62.93,9.5,9.5,0,0,0-.47,3.68v14.58a12.16,12.16,0,0,0,.36,3.77,1.45,1.45,0,0,0,1.5.87,1.62,1.62,0,0,0,1.7-1,17.28,17.28,0,0,0,.39-4.74Z" transform="translate(-199.79 -330.34)"/><path class="cls-13" d="M467.81,553.2v33.4a73.14,73.14,0,0,1-.31,8.74,8.75,8.75,0,0,1-2.21,4.19,11.78,11.78,0,0,1-5.27,3.36,26.76,26.76,0,0,1-8.52,1.16q-6.3,0-10.13-2.14t-3.95-8.42h12.81c0,1.92.69,2.88,2.09,2.88a2.07,2.07,0,0,0,2-.88,8.88,8.88,0,0,0,.49-3.7v-3.27a12.71,12.71,0,0,1-3.58,2.33,10.13,10.13,0,0,1-3.93.78,10.91,10.91,0,0,1-5.87-1.44,7.25,7.25,0,0,1-3.15-3.77,20.24,20.24,0,0,1-.85-6.65V564c0-4.11.74-7.08,2.22-8.88s3.73-2.72,6.76-2.72a10,10,0,0,1,4.53,1,10.62,10.62,0,0,1,3.64,3l.95-3.27Zm-13.24,11.5a12.52,12.52,0,0,0-.34-3.79,1.47,1.47,0,0,0-1.52-.82,1.68,1.68,0,0,0-1.62.93,9.5,9.5,0,0,0-.47,3.68v14.58a12.16,12.16,0,0,0,.36,3.77,1.45,1.45,0,0,0,1.5.87,1.62,1.62,0,0,0,1.7-1,17.28,17.28,0,0,0,.39-4.74Z" transform="translate(-199.79 -330.34)"/><path class="cls-12" d="M486.11,596.57H472.52V553.2h13.59Zm4.45-55.14-10.76,8.86h-6.63l5.75-8.86Z" transform="translate(-199.79 -330.34)"/><path class="cls-13" d="M486.11,596.57H472.52V553.2h13.59Zm4.45-55.14-10.76,8.86h-6.63l5.75-8.86Z" transform="translate(-199.79 -330.34)"/><path class="cls-12" d="M502.65,570H490.26v-2.9a20.62,20.62,0,0,1,1.16-7.77,10.84,10.84,0,0,1,4.66-4.82,17.57,17.57,0,0,1,9.09-2.09q6.69,0,10.1,2.37a9.22,9.22,0,0,1,4.08,5.82q.69,3.45.69,14.2v21.77H507.19V592.7a8.54,8.54,0,0,1-3.12,3.49,8.63,8.63,0,0,1-4.56,1.16,11.09,11.09,0,0,1-6.35-2q-2.9-1.93-2.9-8.51v-3.56q0-4.87,1.54-6.63t7.61-4.12q6.51-2.55,7-3.44a9.2,9.2,0,0,0,.45-3.59,12.12,12.12,0,0,0-.5-4.43,1.74,1.74,0,0,0-1.69-1c-.89,0-1.45.29-1.66.87a17.4,17.4,0,0,0-.33,4.49Zm4.18,6q-3.16,2.32-3.67,3.89a15.37,15.37,0,0,0-.51,4.51,13.25,13.25,0,0,0,.44,4.35,1.74,1.74,0,0,0,1.75,1,1.62,1.62,0,0,0,1.62-.77,12.47,12.47,0,0,0,.37-4Z" transform="translate(-199.79 -330.34)"/><path class="cls-13" d="M502.65,570H490.26v-2.9a20.62,20.62,0,0,1,1.16-7.77,10.84,10.84,0,0,1,4.66-4.82,17.57,17.57,0,0,1,9.09-2.09q6.69,0,10.1,2.37a9.22,9.22,0,0,1,4.08,5.82q.69,3.45.69,14.2v21.77H507.19V592.7a8.54,8.54,0,0,1-3.12,3.49,8.63,8.63,0,0,1-4.56,1.16,11.09,11.09,0,0,1-6.35-2q-2.9-1.93-2.9-8.51v-3.56q0-4.87,1.54-6.63t7.61-4.12q6.51-2.55,7-3.44a9.2,9.2,0,0,0,.45-3.59,12.12,12.12,0,0,0-.5-4.43,1.74,1.74,0,0,0-1.69-1c-.89,0-1.45.29-1.66.87a17.4,17.4,0,0,0-.33,4.49Zm4.18,6q-3.16,2.32-3.67,3.89a15.37,15.37,0,0,0-.51,4.51,13.25,13.25,0,0,0,.44,4.35,1.74,1.74,0,0,0,1.75,1,1.62,1.62,0,0,0,1.62-.77,12.47,12.47,0,0,0,.37-4Z" transform="translate(-199.79 -330.34)"/><path class="cls-12" d="M319.15,606.66v41.4H308.82V645.6a10.59,10.59,0,0,1-3.12,2.31,8,8,0,0,1-3.43.77,6.94,6.94,0,0,1-4.17-1.27,5.64,5.64,0,0,1-2.26-2.93,20.88,20.88,0,0,1-.5-5.42V623.18a21.52,21.52,0,0,1,.5-5.55,5.48,5.48,0,0,1,2.29-2.87,7.29,7.29,0,0,1,4.27-1.24,8.45,8.45,0,0,1,6.42,2.76v-9.62Zm-10.33,16a6.57,6.57,0,0,0-.32-2.51,1.28,1.28,0,0,0-1.26-.63,1.31,1.31,0,0,0-1.25.57,6.48,6.48,0,0,0-.32,2.57v16.62A7.81,7.81,0,0,0,306,642a1.19,1.19,0,0,0,1.18.65,1.31,1.31,0,0,0,1.33-.73,11.33,11.33,0,0,0,.33-3.57Z" transform="translate(-199.79 -330.34)"/><path class="cls-13" d="M319.15,606.66v41.4H308.82V645.6a10.59,10.59,0,0,1-3.12,2.31,8,8,0,0,1-3.43.77,6.94,6.94,0,0,1-4.17-1.27,5.64,5.64,0,0,1-2.26-2.93,20.88,20.88,0,0,1-.5-5.42V623.18a21.52,21.52,0,0,1,.5-5.55,5.48,5.48,0,0,1,2.29-2.87,7.29,7.29,0,0,1,4.27-1.24,8.45,8.45,0,0,1,6.42,2.76v-9.62Zm-10.33,16a6.57,6.57,0,0,0-.32-2.51,1.28,1.28,0,0,0-1.26-.63,1.31,1.31,0,0,0-1.25.57,6.48,6.48,0,0,0-.32,2.57v16.62A7.81,7.81,0,0,0,306,642a1.19,1.19,0,0,0,1.18.65,1.31,1.31,0,0,0,1.33-.73,11.33,11.33,0,0,0,.33-3.57Z" transform="translate(-199.79 -330.34)"/><path class="cls-12" d="M346.26,631.7H332.88V639a8,8,0,0,0,.34,3,1.29,1.29,0,0,0,1.28.66,1.55,1.55,0,0,0,1.57-.88,9.84,9.84,0,0,0,.39-3.42V633.9h9.8v2.5a22.12,22.12,0,0,1-.4,4.84,9.81,9.81,0,0,1-1.85,3.6,9,9,0,0,1-3.7,2.88,14.27,14.27,0,0,1-5.61,1,16.33,16.33,0,0,1-5.78-.95,9.24,9.24,0,0,1-3.9-2.59,9.4,9.4,0,0,1-1.93-3.63,23.42,23.42,0,0,1-.54-5.77v-9.9a16.92,16.92,0,0,1,1.2-7,8.37,8.37,0,0,1,3.94-3.94,13.92,13.92,0,0,1,6.29-1.36,14.1,14.1,0,0,1,7.18,1.65,9,9,0,0,1,4,4.37,20.45,20.45,0,0,1,1.14,7.66Zm-10.36-5.53v-2.48a12.43,12.43,0,0,0-.28-3.4,1.11,1.11,0,0,0-1.15-.76c-.72,0-1.16.21-1.33.65a13.49,13.49,0,0,0-.26,3.51v2.48Z" transform="translate(-199.79 -330.34)"/><path class="cls-13" d="M346.26,631.7H332.88V639a8,8,0,0,0,.34,3,1.29,1.29,0,0,0,1.28.66,1.55,1.55,0,0,0,1.57-.88,9.84,9.84,0,0,0,.39-3.42V633.9h9.8v2.5a22.12,22.12,0,0,1-.4,4.84,9.81,9.81,0,0,1-1.85,3.6,9,9,0,0,1-3.7,2.88,14.27,14.27,0,0,1-5.61,1,16.33,16.33,0,0,1-5.78-.95,9.24,9.24,0,0,1-3.9-2.59,9.4,9.4,0,0,1-1.93-3.63,23.42,23.42,0,0,1-.54-5.77v-9.9a16.92,16.92,0,0,1,1.2-7,8.37,8.37,0,0,1,3.94-3.94,13.92,13.92,0,0,1,6.29-1.36,14.1,14.1,0,0,1,7.18,1.65,9,9,0,0,1,4,4.37,20.45,20.45,0,0,1,1.14,7.66Zm-10.36-5.53v-2.48a12.43,12.43,0,0,0-.28-3.4,1.11,1.11,0,0,0-1.15-.76c-.72,0-1.16.21-1.33.65a13.49,13.49,0,0,0-.26,3.51v2.48Z" transform="translate(-199.79 -330.34)"/><path class="cls-12" d="M377.78,606.66l6.16,41.4h-11l-.58-7.44h-3.85l-.65,7.44H356.73l5.49-41.4Zm-5.7,26.62q-.82-7-1.64-17.39-1.65,11.9-2.07,17.39Z" transform="translate(-199.79 -330.34)"/><path class="cls-13" d="M377.78,606.66l6.16,41.4h-11l-.58-7.44h-3.85l-.65,7.44H356.73l5.49-41.4Zm-5.7,26.62q-.82-7-1.64-17.39-1.65,11.9-2.07,17.39Z" transform="translate(-199.79 -330.34)"/><path class="cls-12" d="M396,614.13l-.18,3.13a7.73,7.73,0,0,1,2.75-2.81,7.4,7.4,0,0,1,3.75-.93,7.1,7.1,0,0,1,4.35,1.25,5.56,5.56,0,0,1,2.17,3.16,29,29,0,0,1,.49,6.35v23.78H399v-23.5a21.33,21.33,0,0,0-.23-4.27c-.15-.51-.58-.76-1.27-.76a1.28,1.28,0,0,0-1.39.88,22.79,22.79,0,0,0-.28,4.72v22.93H385.46V614.13Z" transform="translate(-199.79 -330.34)"/><path class="cls-13" d="M396,614.13l-.18,3.13a7.73,7.73,0,0,1,2.75-2.81,7.4,7.4,0,0,1,3.75-.93,7.1,7.1,0,0,1,4.35,1.25,5.56,5.56,0,0,1,2.17,3.16,29,29,0,0,1,.49,6.35v23.78H399v-23.5a21.33,21.33,0,0,0-.23-4.27c-.15-.51-.58-.76-1.27-.76a1.28,1.28,0,0,0-1.39.88,22.79,22.79,0,0,0-.28,4.72v22.93H385.46V614.13Z" transform="translate(-199.79 -330.34)"/><path class="cls-12" d="M423.75,609.6V615h2.78v5.37h-2.78v18.15c0,2.24.11,3.48.34,3.74s1.19.38,2.88.38v5.47H422.8a29.57,29.57,0,0,1-5-.29,5.31,5.31,0,0,1-2.66-1.36,4.45,4.45,0,0,1-1.43-2.43,42.61,42.61,0,0,1-.28-6.43V620.32h-2.23V615h2.23V609.6Z" transform="translate(-199.79 -330.34)"/><path class="cls-13" d="M423.75,609.6V615h2.78v5.37h-2.78v18.15c0,2.24.11,3.48.34,3.74s1.19.38,2.88.38v5.47H422.8a29.57,29.57,0,0,1-5-.29,5.31,5.31,0,0,1-2.66-1.36,4.45,4.45,0,0,1-1.43-2.43,42.61,42.61,0,0,1-.28-6.43V620.32h-2.23V615h2.23V609.6Z" transform="translate(-199.79 -330.34)"/><path class="cls-12" d="M439.45,612.06H428.81v-5.4h10.64Zm0,36H428.81V614.13h10.64Z" transform="translate(-199.79 -330.34)"/><path class="cls-13" d="M439.45,612.06H428.81v-5.4h10.64Zm0,36H428.81V614.13h10.64Z" transform="translate(-199.79 -330.34)"/><path class="cls-12" d="M466.63,614.13v26.14a58.54,58.54,0,0,1-.24,6.84,6.8,6.8,0,0,1-1.73,3.27,9.25,9.25,0,0,1-4.13,2.63,20.67,20.67,0,0,1-6.66.91,16.3,16.3,0,0,1-7.93-1.67c-2-1.12-3-3.32-3.09-6.59h10c0,1.5.55,2.25,1.64,2.25a1.63,1.63,0,0,0,1.56-.69,6.9,6.9,0,0,0,.38-2.89v-2.56a9.81,9.81,0,0,1-2.8,1.82,7.91,7.91,0,0,1-3.08.61,8.53,8.53,0,0,1-4.59-1.12,5.81,5.81,0,0,1-2.47-3,15.94,15.94,0,0,1-.66-5.2V622.59q0-4.83,1.74-7a6.41,6.41,0,0,1,5.29-2.12,7.83,7.83,0,0,1,3.54.79,8.29,8.29,0,0,1,2.85,2.38l.75-2.56Zm-10.36,9a10.3,10.3,0,0,0-.26-3,1.15,1.15,0,0,0-1.19-.63,1.31,1.31,0,0,0-1.27.72,7.31,7.31,0,0,0-.37,2.88v11.41a9.48,9.48,0,0,0,.28,3,1.15,1.15,0,0,0,1.18.68,1.27,1.27,0,0,0,1.33-.82,13.77,13.77,0,0,0,.3-3.71Z" transform="translate(-199.79 -330.34)"/><path class="cls-13" d="M466.63,614.13v26.14a58.54,58.54,0,0,1-.24,6.84,6.8,6.8,0,0,1-1.73,3.27,9.25,9.25,0,0,1-4.13,2.63,20.67,20.67,0,0,1-6.66.91,16.3,16.3,0,0,1-7.93-1.67c-2-1.12-3-3.32-3.09-6.59h10c0,1.5.55,2.25,1.64,2.25a1.63,1.63,0,0,0,1.56-.69,6.9,6.9,0,0,0,.38-2.89v-2.56a9.81,9.81,0,0,1-2.8,1.82,7.91,7.91,0,0,1-3.08.61,8.53,8.53,0,0,1-4.59-1.12,5.81,5.81,0,0,1-2.47-3,15.94,15.94,0,0,1-.66-5.2V622.59q0-4.83,1.74-7a6.41,6.41,0,0,1,5.29-2.12,7.83,7.83,0,0,1,3.54.79,8.29,8.29,0,0,1,2.85,2.38l.75-2.56Zm-10.36,9a10.3,10.3,0,0,0-.26-3,1.15,1.15,0,0,0-1.19-.63,1.31,1.31,0,0,0-1.27.72,7.31,7.31,0,0,0-.37,2.88v11.41a9.48,9.48,0,0,0,.28,3,1.15,1.15,0,0,0,1.18.68,1.27,1.27,0,0,0,1.33-.82,13.77,13.77,0,0,0,.3-3.71Z" transform="translate(-199.79 -330.34)"/><path class="cls-12" d="M494,614.13v33.93H483.46l.18-2.81a7.22,7.22,0,0,1-2.65,2.57,7.45,7.45,0,0,1-3.62.86,8.2,8.2,0,0,1-3.86-.82,5.28,5.28,0,0,1-2.26-2.17,8,8,0,0,1-.91-2.83q-.18-1.47-.18-5.84V614.13h10.33v23.09a24.49,24.49,0,0,0,.24,4.71c.17.49.61.74,1.32.74s1.22-.26,1.37-.77a29.75,29.75,0,0,0,.22-4.93V614.13Z" transform="translate(-199.79 -330.34)"/><path class="cls-13" d="M494,614.13v33.93H483.46l.18-2.81a7.22,7.22,0,0,1-2.65,2.57,7.45,7.45,0,0,1-3.62.86,8.2,8.2,0,0,1-3.86-.82,5.28,5.28,0,0,1-2.26-2.17,8,8,0,0,1-.91-2.83q-.18-1.47-.18-5.84V614.13h10.33v23.09a24.49,24.49,0,0,0,.24,4.71c.17.49.61.74,1.32.74s1.22-.26,1.37-.77a29.75,29.75,0,0,0,.22-4.93V614.13Z" transform="translate(-199.79 -330.34)"/><path class="cls-12" d="M506.91,627.27h-9.69V625a16.22,16.22,0,0,1,.9-6.08,8.45,8.45,0,0,1,3.65-3.77,13.71,13.71,0,0,1,7.11-1.63c3.49,0,6.13.61,7.9,1.85a7.25,7.25,0,0,1,3.2,4.55,72.68,72.68,0,0,1,.53,11.11v17H510.46v-3a6.73,6.73,0,0,1-2.44,2.73,6.81,6.81,0,0,1-3.57.91,8.74,8.74,0,0,1-5-1.52q-2.26-1.53-2.26-6.67v-2.78c0-2.54.39-4.27,1.2-5.19s2.79-2,6-3.22c3.39-1.34,5.21-2.23,5.44-2.69a7.1,7.1,0,0,0,.36-2.81,9.64,9.64,0,0,0-.39-3.47,1.36,1.36,0,0,0-1.32-.8c-.7,0-1.14.22-1.31.67a14,14,0,0,0-.25,3.52Zm3.27,4.66c-1.65,1.21-2.61,2.22-2.88,3a12.31,12.31,0,0,0-.39,3.53,10.3,10.3,0,0,0,.34,3.4,1.37,1.37,0,0,0,1.37.77,1.28,1.28,0,0,0,1.27-.6,10,10,0,0,0,.29-3.16Z" transform="translate(-199.79 -330.34)"/><path class="cls-13" d="M506.91,627.27h-9.69V625a16.22,16.22,0,0,1,.9-6.08,8.45,8.45,0,0,1,3.65-3.77,13.71,13.71,0,0,1,7.11-1.63c3.49,0,6.13.61,7.9,1.85a7.25,7.25,0,0,1,3.2,4.55,72.68,72.68,0,0,1,.53,11.11v17H510.46v-3a6.73,6.73,0,0,1-2.44,2.73,6.81,6.81,0,0,1-3.57.91,8.74,8.74,0,0,1-5-1.52q-2.26-1.53-2.26-6.67v-2.78c0-2.54.39-4.27,1.2-5.19s2.79-2,6-3.22c3.39-1.34,5.21-2.23,5.44-2.69a7.1,7.1,0,0,0,.36-2.81,9.64,9.64,0,0,0-.39-3.47,1.36,1.36,0,0,0-1.32-.8c-.7,0-1.14.22-1.31.67a14,14,0,0,0-.25,3.52Zm3.27,4.66c-1.65,1.21-2.61,2.22-2.88,3a12.31,12.31,0,0,0-.39,3.53,10.3,10.3,0,0,0,.34,3.4,1.37,1.37,0,0,0,1.37.77,1.28,1.28,0,0,0,1.27-.6,10,10,0,0,0,.29-3.16Z" transform="translate(-199.79 -330.34)"/><path class="cls-14" d="M292.36,502.67H278.6v-9.2a16.25,16.25,0,0,0-.45-5,1.89,1.89,0,0,0-1.94-1,2,2,0,0,0-2.16,1.21,18.67,18.67,0,0,0-.45,5.23v24.58a17.43,17.43,0,0,0,.45,5,2,2,0,0,0,2.06,1.17,1.93,1.93,0,0,0,2-1.17,19.08,19.08,0,0,0,.48-5.54v-6.65h13.76v2.06q0,8.22-1.16,11.65a11.93,11.93,0,0,1-5.14,6,17.49,17.49,0,0,1-9.78,2.59,20.25,20.25,0,0,1-10-2.19,10.64,10.64,0,0,1-5.2-6.06q-1.28-3.87-1.27-11.65V498.29a69,69,0,0,1,.39-8.58,12.07,12.07,0,0,1,2.33-5.51A13.17,13.17,0,0,1,268,480a22.07,22.07,0,0,1,18,.83,11.26,11.26,0,0,1,5.19,5.86q1.25,3.51,1.25,10.92Z" transform="translate(-199.79 -330.34)"/><path class="cls-14" d="M326.8,511.62H309.71V521a10.19,10.19,0,0,0,.43,3.79,1.63,1.63,0,0,0,1.63.85,2,2,0,0,0,2-1.12,12.32,12.32,0,0,0,.51-4.37v-5.72H326.8v3.21a29.21,29.21,0,0,1-.5,6.17,12.6,12.6,0,0,1-2.37,4.61,11.57,11.57,0,0,1-4.73,3.68,18.36,18.36,0,0,1-7.17,1.22,20.78,20.78,0,0,1-7.39-1.21,11.84,11.84,0,0,1-5-3.31,12.08,12.08,0,0,1-2.47-4.64,30.43,30.43,0,0,1-.68-7.37V504.14a21.61,21.61,0,0,1,1.53-9,10.58,10.58,0,0,1,5-5,17.81,17.81,0,0,1,8-1.75,18,18,0,0,1,9.16,2.11,11.62,11.62,0,0,1,5.07,5.59c1,2.32,1.45,5.59,1.45,9.79Zm-13.23-7.06v-3.17a15.9,15.9,0,0,0-.36-4.34,1.42,1.42,0,0,0-1.47-1c-.92,0-1.49.28-1.7.84a17.13,17.13,0,0,0-.33,4.49v3.17Z" transform="translate(-199.79 -330.34)"/><path class="cls-14" d="M344.55,489.17l-.23,4a9.91,9.91,0,0,1,3.52-3.58,9.35,9.35,0,0,1,4.78-1.2,9.07,9.07,0,0,1,5.56,1.61,7.12,7.12,0,0,1,2.78,4,37.21,37.21,0,0,1,.62,8.12v30.4H348.37v-30a27.86,27.86,0,0,0-.29-5.46c-.2-.65-.74-1-1.63-1a1.64,1.64,0,0,0-1.77,1.13,28.29,28.29,0,0,0-.36,6v29.32h-13.2V489.17Z" transform="translate(-199.79 -330.34)"/><path class="cls-14" d="M380,483.38v6.83h3.57v6.87H380v23.2c0,2.86.15,4.45.44,4.77s1.52.49,3.68.49v7h-5.33a38.14,38.14,0,0,1-6.44-.38,6.88,6.88,0,0,1-3.39-1.73,5.75,5.75,0,0,1-1.83-3.1,55.06,55.06,0,0,1-.36-8.22v-22H364v-6.87h2.85v-6.83Z" transform="translate(-199.79 -330.34)"/><path class="cls-14" d="M399.72,489.17l-.52,5.7q2.87-6.12,8.33-6.49v15.27a11,11,0,0,0-5.33,1,4.1,4.1,0,0,0-2.09,2.73,49.1,49.1,0,0,0-.39,8v17.13H386.51V489.17Z" transform="translate(-199.79 -330.34)"/><path class="cls-14" d="M440.34,504.4V515a45.18,45.18,0,0,1-.58,8.58,12.21,12.21,0,0,1-2.52,5.1,11.49,11.49,0,0,1-4.95,3.5,19.87,19.87,0,0,1-7,1.12,24.9,24.9,0,0,1-7.42-1,10.07,10.07,0,0,1-4.72-2.91,11.51,11.51,0,0,1-2.4-4.71,35.3,35.3,0,0,1-.72-8.28V505.35a27,27,0,0,1,1.31-9.45,10.93,10.93,0,0,1,4.7-5.46,16.62,16.62,0,0,1,8.7-2.06,19.73,19.73,0,0,1,7.63,1.33,12,12,0,0,1,7.29,7.83,27.49,27.49,0,0,1,.63,6.86m-13.2-3.27a14.42,14.42,0,0,0-.36-4.2,1.48,1.48,0,0,0-1.54-.86,1.55,1.55,0,0,0-1.57.86,13.36,13.36,0,0,0-.39,4.2v19.58a12.71,12.71,0,0,0,.39,4,1.79,1.79,0,0,0,3.09.08,11,11,0,0,0,.38-3.66Z" transform="translate(-199.79 -330.34)"/><path class="cls-14" d="M486.52,479.62v52.92h-13.2v-3.15a13.46,13.46,0,0,1-4,3,10.22,10.22,0,0,1-4.38,1,8.92,8.92,0,0,1-5.32-1.61,7.15,7.15,0,0,1-2.89-3.75,26.34,26.34,0,0,1-.64-6.93V500.74a27,27,0,0,1,.64-7.09,7,7,0,0,1,2.92-3.68,9.3,9.3,0,0,1,5.46-1.59,10.84,10.84,0,0,1,8.2,3.54v-12.3Zm-13.2,20.46a8.29,8.29,0,0,0-.41-3.2,1.63,1.63,0,0,0-1.61-.82,1.65,1.65,0,0,0-1.59.74,8.23,8.23,0,0,0-.41,3.28v21.25a9.86,9.86,0,0,0,.39,3.48,1.51,1.51,0,0,0,1.51.83,1.69,1.69,0,0,0,1.7-.93,14.53,14.53,0,0,0,.42-4.56Z" transform="translate(-199.79 -330.34)"/><path class="cls-14" d="M521.17,511.62h-17.1V521a10.42,10.42,0,0,0,.43,3.79,1.64,1.64,0,0,0,1.63.85,2,2,0,0,0,2-1.12,12.32,12.32,0,0,0,.51-4.37v-5.72h12.52v3.21a28.44,28.44,0,0,1-.51,6.17,12.45,12.45,0,0,1-2.37,4.61,11.54,11.54,0,0,1-4.72,3.68,18.45,18.45,0,0,1-7.18,1.22,20.73,20.73,0,0,1-7.38-1.21,11.81,11.81,0,0,1-5-3.31,12.2,12.2,0,0,1-2.46-4.64,29.84,29.84,0,0,1-.69-7.37V504.14a21.43,21.43,0,0,1,1.54-9,10.56,10.56,0,0,1,5-5,17.81,17.81,0,0,1,8-1.75,18.06,18.06,0,0,1,9.17,2.11,11.55,11.55,0,0,1,5.06,5.59,26.2,26.2,0,0,1,1.46,9.79Zm-13.24-7.06v-3.17a15.9,15.9,0,0,0-.36-4.34,1.42,1.42,0,0,0-1.47-1c-.91,0-1.48.28-1.7.84a17.13,17.13,0,0,0-.33,4.49v3.17Z" transform="translate(-199.79 -330.34)"/><path class="cls-14" d="M236.6,567.6H222.84v-9.2a16.72,16.72,0,0,0-.44-5,1.9,1.9,0,0,0-2-1,2,2,0,0,0-2.15,1.21,18.16,18.16,0,0,0-.46,5.23v24.58a16.91,16.91,0,0,0,.46,5,2.34,2.34,0,0,0,4.07,0,19.6,19.6,0,0,0,.47-5.54v-6.65H236.6v2.06q0,8.22-1.16,11.65a11.91,11.91,0,0,1-5.13,6,17.53,17.53,0,0,1-9.79,2.59,20.3,20.3,0,0,1-10-2.19,10.67,10.67,0,0,1-5.2-6.06q-1.28-3.87-1.27-11.65V563.22a69.21,69.21,0,0,1,.39-8.58,12,12,0,0,1,2.34-5.51A13.07,13.07,0,0,1,212.2,545a22.13,22.13,0,0,1,18,.84,11.27,11.27,0,0,1,5.2,5.85q1.23,3.51,1.24,10.92Z" transform="translate(-199.79 -330.34)"/><path class="cls-14" d="M252.94,570.9H240.55V568a20.56,20.56,0,0,1,1.16-7.76,10.79,10.79,0,0,1,4.66-4.82,17.48,17.48,0,0,1,9.09-2.09q6.69,0,10.1,2.37a9.21,9.21,0,0,1,4.08,5.81q.69,3.45.69,14.2v21.77H257.48V593.6a8,8,0,0,1-7.68,4.65,11.08,11.08,0,0,1-6.35-1.94c-1.93-1.3-2.9-4.13-2.9-8.52v-3.56c0-3.24.52-5.45,1.54-6.63s3.56-2.55,7.61-4.12q6.51-2.55,7-3.43a9.29,9.29,0,0,0,.45-3.6,12.39,12.39,0,0,0-.5-4.43,1.75,1.75,0,0,0-1.69-1c-.89,0-1.45.28-1.66.86a17.5,17.5,0,0,0-.33,4.5Zm4.18,6c-2.11,1.54-3.34,2.84-3.67,3.89a15.28,15.28,0,0,0-.51,4.51,13.22,13.22,0,0,0,.44,4.34,1.72,1.72,0,0,0,1.75,1,1.62,1.62,0,0,0,1.62-.76,12.55,12.55,0,0,0,.37-4Z" transform="translate(-199.79 -330.34)"/><path class="cls-14" d="M288.07,554.1l-.52,5.7q2.88-6.12,8.34-6.49v15.27a11,11,0,0,0-5.33,1,4.1,4.1,0,0,0-2.09,2.73,47.51,47.51,0,0,0-.4,8.05v17.13h-13.2V554.1Z" transform="translate(-199.79 -330.34)"/><path class="cls-14" d="M328.86,544.56v52.91h-13.2v-3.15a13.59,13.59,0,0,1-4,2.95,10.08,10.08,0,0,1-4.38,1,9,9,0,0,1-5.33-1.61,7.25,7.25,0,0,1-2.89-3.75,26.79,26.79,0,0,1-.64-6.93V565.67a27.49,27.49,0,0,1,.64-7.09A7.05,7.05,0,0,1,302,554.9a9.29,9.29,0,0,1,5.45-1.59,10.84,10.84,0,0,1,8.21,3.54V544.56ZM315.66,565a8.35,8.35,0,0,0-.41-3.21,2,2,0,0,0-3.2-.08,8.07,8.07,0,0,0-.41,3.29v21.24a9.86,9.86,0,0,0,.39,3.48,1.49,1.49,0,0,0,1.51.83,1.69,1.69,0,0,0,1.7-.93,14.53,14.53,0,0,0,.42-4.56Z" transform="translate(-199.79 -330.34)"/><path class="cls-14" d="M347.2,551.45H333.6v-6.89h13.6Zm0,46H333.6V554.1h13.6Z" transform="translate(-199.79 -330.34)"/><path class="cls-14" d="M381.81,569.33V580a45,45,0,0,1-.59,8.58,12,12,0,0,1-2.52,5.1,11.37,11.37,0,0,1-4.95,3.5,19.81,19.81,0,0,1-6.94,1.12,24.85,24.85,0,0,1-7.42-1,10,10,0,0,1-4.72-2.91,11.46,11.46,0,0,1-2.41-4.71,36,36,0,0,1-.71-8.28V570.28a27.29,27.29,0,0,1,1.3-9.45,10.9,10.9,0,0,1,4.71-5.46,16.56,16.56,0,0,1,8.69-2,19.89,19.89,0,0,1,7.63,1.32,12.12,12.12,0,0,1,4.92,3.45,12,12,0,0,1,2.37,4.38,26.92,26.92,0,0,1,.64,6.86m-13.2-3.27a14.42,14.42,0,0,0-.36-4.2,1.48,1.48,0,0,0-1.54-.86,1.54,1.54,0,0,0-1.57.86,13.36,13.36,0,0,0-.39,4.2v19.58a12.71,12.71,0,0,0,.39,4,1.79,1.79,0,0,0,3.09.08,11,11,0,0,0,.38-3.66Z" transform="translate(-199.79 -330.34)"/><rect class="cls-14" x="186.37" y="214.22" width="13.6" height="52.91"/><path class="cls-14" d="M434.36,569.33V580a45.18,45.18,0,0,1-.58,8.58,12.21,12.21,0,0,1-2.52,5.1,11.49,11.49,0,0,1-4.95,3.5,19.87,19.87,0,0,1-6.95,1.12,24.9,24.9,0,0,1-7.42-1,10.07,10.07,0,0,1-4.72-2.91,11.57,11.57,0,0,1-2.4-4.71,35.3,35.3,0,0,1-.72-8.28V570.28a27,27,0,0,1,1.31-9.45,10.93,10.93,0,0,1,4.7-5.46,16.63,16.63,0,0,1,8.7-2,19.92,19.92,0,0,1,7.63,1.32,12,12,0,0,1,7.29,7.83,27.49,27.49,0,0,1,.63,6.86m-13.2-3.27a14.42,14.42,0,0,0-.36-4.2,1.47,1.47,0,0,0-1.53-.86,1.54,1.54,0,0,0-1.57.86,12.94,12.94,0,0,0-.4,4.2v19.58a12.31,12.31,0,0,0,.4,4,1.78,1.78,0,0,0,3.08.08,11,11,0,0,0,.38-3.66Z" transform="translate(-199.79 -330.34)"/><path class="cls-14" d="M468.71,554.1v33.4a73,73,0,0,1-.31,8.74,8.67,8.67,0,0,1-2.2,4.19,11.87,11.87,0,0,1-5.28,3.36A26.48,26.48,0,0,1,452.4,605q-6.3,0-10.13-2.14t-3.95-8.41h12.81c0,1.91.7,2.87,2.09,2.87a2.06,2.06,0,0,0,2-.88,8.88,8.88,0,0,0,.49-3.7v-3.27a12.59,12.59,0,0,1-3.57,2.33,10.22,10.22,0,0,1-3.94.78,10.91,10.91,0,0,1-5.87-1.43,7.35,7.35,0,0,1-3.15-3.78,20.2,20.2,0,0,1-.85-6.65V564.92q0-6.18,2.22-8.89t6.77-2.71a10,10,0,0,1,4.52,1,10.78,10.78,0,0,1,3.65,3l.94-3.28Zm-13.23,11.5a12.45,12.45,0,0,0-.35-3.79,1.46,1.46,0,0,0-1.52-.81,1.65,1.65,0,0,0-1.61.93,9.2,9.2,0,0,0-.48,3.67v14.58a12.12,12.12,0,0,0,.36,3.77,1.45,1.45,0,0,0,1.5.87,1.61,1.61,0,0,0,1.7-1.05,16.69,16.69,0,0,0,.4-4.73Z" transform="translate(-199.79 -330.34)"/><path class="cls-14" d="M487,597.47h-13.6V554.1H487Zm4.44-55.14-10.75,8.86h-6.64l5.76-8.86Z" transform="translate(-199.79 -330.34)"/><path class="cls-14" d="M503.55,570.9H491.17V568a20.36,20.36,0,0,1,1.16-7.76,10.71,10.71,0,0,1,4.65-4.82,17.5,17.5,0,0,1,9.09-2.09q6.71,0,10.1,2.37a9.14,9.14,0,0,1,4.08,5.81q.69,3.45.69,14.2v21.77H508.1V593.6a8,8,0,0,1-7.68,4.65,11.14,11.14,0,0,1-6.36-1.94c-1.93-1.3-2.89-4.13-2.89-8.52v-3.56q0-4.86,1.53-6.63t7.62-4.12q6.51-2.55,7-3.43a9,9,0,0,0,.46-3.6,12.08,12.08,0,0,0-.51-4.43,1.74,1.74,0,0,0-1.68-1c-.89,0-1.45.28-1.67.86a17.5,17.5,0,0,0-.33,4.5Zm4.19,6c-2.12,1.54-3.34,2.84-3.68,3.89a15.28,15.28,0,0,0-.51,4.51,13.22,13.22,0,0,0,.44,4.34,1.72,1.72,0,0,0,1.75,1,1.62,1.62,0,0,0,1.62-.76,12.43,12.43,0,0,0,.38-4Z" transform="translate(-199.79 -330.34)"/><path class="cls-12" d="M530.85,556.39a24.05,24.05,0,1,1,24,24.05,24,24,0,0,1-24-24.05" transform="translate(-199.79 -330.34)"/><path class="cls-15" d="M532.2,555a24.05,24.05,0,1,1,24,24A24,24,0,0,1,532.2,555Z" transform="translate(-199.79 -330.34)"/><path class="cls-16" d="M543.26,555a13,13,0,1,1,13,13,13,13,0,0,1-13-13" transform="translate(-199.79 -330.34)"/><path class="cls-17" d="M707.27,546.53c8.11-9,64.29-96.95,120.6-99.63S899.49,490,846.64,567.7C801,634.85,738,658.91,761.59,640s113.79-96.65,78-155.15S711.4,542,709.45,547.8Z" transform="translate(-199.79 -330.34)"/><path class="cls-14" d="M320.05,607.57V649H309.72v-2.46a10.6,10.6,0,0,1-3.12,2.3,7.84,7.84,0,0,1-3.42.77,7,7,0,0,1-4.17-1.26,5.62,5.62,0,0,1-2.26-2.93,20.54,20.54,0,0,1-.5-5.42V624.09a21,21,0,0,1,.5-5.55,5.52,5.52,0,0,1,2.28-2.88,7.32,7.32,0,0,1,4.28-1.24,8.79,8.79,0,0,1,3.51.69,8.61,8.61,0,0,1,2.9,2.08v-9.62Zm-10.33,16a6.28,6.28,0,0,0-.32-2.5,1.26,1.26,0,0,0-1.26-.64,1.29,1.29,0,0,0-1.24.57,6.3,6.3,0,0,0-.32,2.57V640.2a7.78,7.78,0,0,0,.3,2.72,1.18,1.18,0,0,0,1.18.65,1.3,1.3,0,0,0,1.33-.73,11.25,11.25,0,0,0,.33-3.56Z" transform="translate(-199.79 -330.34)"/><path class="cls-14" d="M347.16,632.6H333.79v7.34a8.27,8.27,0,0,0,.33,3,1.3,1.3,0,0,0,1.28.66,1.54,1.54,0,0,0,1.57-.88,9.74,9.74,0,0,0,.4-3.41V634.8h9.79v2.51a22.84,22.84,0,0,1-.39,4.83,10,10,0,0,1-1.86,3.61,9.07,9.07,0,0,1-3.69,2.87,14.36,14.36,0,0,1-5.62,1,16.33,16.33,0,0,1-5.78-.94,9.16,9.16,0,0,1-3.89-2.6,9.29,9.29,0,0,1-1.94-3.63,24,24,0,0,1-.53-5.77v-9.9a16.92,16.92,0,0,1,1.2-7,8.22,8.22,0,0,1,3.94-3.93,13.77,13.77,0,0,1,6.29-1.37,14,14,0,0,1,7.17,1.65,9.13,9.13,0,0,1,4,4.37,20.72,20.72,0,0,1,1.13,7.66Zm-10.35-5.52V624.6a12.81,12.81,0,0,0-.28-3.4,1.12,1.12,0,0,0-1.16-.77c-.71,0-1.16.22-1.33.65a13.72,13.72,0,0,0-.25,3.52v2.48Z" transform="translate(-199.79 -330.34)"/><path class="cls-14" d="M378.69,607.57l6.16,41.4h-11l-.58-7.44h-3.85l-.64,7.44H357.64l5.48-41.4ZM373,634.19q-.81-7-1.64-17.39-1.65,11.88-2.06,17.39Z" transform="translate(-199.79 -330.34)"/><path class="cls-14" d="M396.88,615l-.18,3.13a7.73,7.73,0,0,1,2.75-2.81,7.39,7.39,0,0,1,3.74-.93,7.16,7.16,0,0,1,4.35,1.25,5.59,5.59,0,0,1,2.17,3.16,28.42,28.42,0,0,1,.49,6.35V649H399.87v-23.5a22.11,22.11,0,0,0-.23-4.27c-.16-.52-.58-.77-1.28-.77a1.28,1.28,0,0,0-1.38.88,22.06,22.06,0,0,0-.28,4.72V649H386.37V615Z" transform="translate(-199.79 -330.34)"/><path class="cls-14" d="M424.65,610.51v5.34h2.79v5.37h-2.79v18.16c0,2.23.11,3.48.34,3.73s1.19.39,2.88.39V649H423.7a29.3,29.3,0,0,1-5-.3,5.33,5.33,0,0,1-2.66-1.35,4.58,4.58,0,0,1-1.43-2.43,42.79,42.79,0,0,1-.28-6.43V621.22h-2.22v-5.37h2.22v-5.34Z" transform="translate(-199.79 -330.34)"/><path class="cls-14" d="M440.35,613H429.71v-5.39h10.64Zm0,36H429.71V615h10.64Z" transform="translate(-199.79 -330.34)"/><path class="cls-14" d="M467.53,615v26.14a58.42,58.42,0,0,1-.24,6.84,6.85,6.85,0,0,1-1.72,3.27,9.35,9.35,0,0,1-4.13,2.64,21,21,0,0,1-6.67.9,16.12,16.12,0,0,1-7.92-1.67c-2-1.12-3-3.31-3.1-6.59h10c0,1.51.54,2.25,1.63,2.25a1.61,1.61,0,0,0,1.56-.69,6.86,6.86,0,0,0,.39-2.89v-2.56a10,10,0,0,1-2.8,1.82,7.93,7.93,0,0,1-3.09.62,8.58,8.58,0,0,1-4.59-1.13,5.72,5.72,0,0,1-2.46-3,15.73,15.73,0,0,1-.67-5.21V623.5q0-4.83,1.74-7a6.45,6.45,0,0,1,5.29-2.12,7.87,7.87,0,0,1,3.55.79,8.52,8.52,0,0,1,2.85,2.39l.74-2.57Zm-10.35,9a9.69,9.69,0,0,0-.27-3,1.15,1.15,0,0,0-1.19-.64,1.31,1.31,0,0,0-1.27.73,7.41,7.41,0,0,0-.37,2.87v11.41a9.77,9.77,0,0,0,.28,2.95,1.13,1.13,0,0,0,1.18.68,1.26,1.26,0,0,0,1.33-.82,13.58,13.58,0,0,0,.31-3.7Z" transform="translate(-199.79 -330.34)"/><path class="cls-14" d="M494.87,615V649H484.36l.18-2.82a7.15,7.15,0,0,1-2.65,2.57,7.31,7.31,0,0,1-3.62.86,8.11,8.11,0,0,1-3.86-.82,5.33,5.33,0,0,1-2.26-2.17,7.89,7.89,0,0,1-.91-2.83c-.12-1-.18-2.92-.18-5.84V615H481.4v23.09a24.34,24.34,0,0,0,.24,4.71c.16.49.6.74,1.32.74s1.22-.25,1.36-.77a28.58,28.58,0,0,0,.22-4.93V615Z" transform="translate(-199.79 -330.34)"/><path class="cls-14" d="M507.81,628.18h-9.69V625.9a15.94,15.94,0,0,1,.91-6.07,8.37,8.37,0,0,1,3.64-3.77,13.66,13.66,0,0,1,7.11-1.64c3.49,0,6.13.62,7.9,1.85a7.23,7.23,0,0,1,3.2,4.56,70.82,70.82,0,0,1,.54,11.11v17h-10v-3a6.32,6.32,0,0,1-6,3.64,8.77,8.77,0,0,1-5-1.52c-1.51-1-2.26-3.23-2.26-6.66v-2.79q0-3.81,1.2-5.19t6-3.22q5.09-2,5.45-2.69a7.15,7.15,0,0,0,.35-2.81,9.68,9.68,0,0,0-.39-3.47,1.37,1.37,0,0,0-1.32-.8c-.7,0-1.13.22-1.3.68a13.65,13.65,0,0,0-.26,3.51Zm3.27,4.65c-1.65,1.21-2.61,2.23-2.87,3a11.9,11.9,0,0,0-.4,3.53,10.21,10.21,0,0,0,.35,3.4,1.34,1.34,0,0,0,1.37.77,1.26,1.26,0,0,0,1.26-.6,9.63,9.63,0,0,0,.29-3.16Z" transform="translate(-199.79 -330.34)"/></g></g></g></g></g></g></svg>